<?xml version="1.0" encoding="utf-8"?>
<!-- Generator: Adobe Illustrator 28.0.0, SVG Export Plug-In . SVG Version: 6.00 Build 0)  -->
<svg version="1.1" id="layer_1" xmlns="http://www.w3.org/2000/svg" x="0px"
	 y="0px" viewBox="0 0 515 200.6" style="enable-background:new 0 0 515 200.6;" xml:space="preserve">
<style type="text/css">
	.st0{fill:#89B92A;}
	.st1{fill:#E89413;}
	.st2{fill:#727171;}
</style>
<g>
	<path class="st0" d="M9.7,15.7c0,0,21.4,108.1,87.6,91.5c0,0-26.9-79.6-66.9-89.1C30.3,18.1,18.8,14.8,9.7,15.7z"/>
	<path class="st0" d="M115.4,108.8c0,0,1.2-63,46.3-44.8c0,0,18.6,10.7,20.6,8.3C182.4,72.3,179.6,138.5,115.4,108.8z"/>
	<path class="st0" d="M112.3,122.6c0,0,10.3,68.9,53.1,63.4c0,0,12.3-2,24.6-15.1C189.9,171,164.6,115.5,112.3,122.6z"/>
	<path class="st0" d="M44.9,181.3c0,0-1.6-87.1,60.6-59c0,0,11.9,54.7-20.6,68.5C84.9,190.8,62.3,197.1,44.9,181.3z"/>
	<path class="st1" d="M119,43.6c0,12.6-8.9,22.8-19.8,22.8c-10.9,0-19.8-10.2-19.8-22.8c0-12.6,8.9-22.8,19.8-22.8
		C110.1,20.8,119,31,119,43.6z"/>
</g>
<g>
	<path class="st1" d="M216.9,81.1v-9.8h9.3V46.9h12v24.4h13.2V46.9h11.8v24.4h10.1c1.5,0,2.4,1.1,2.4,3.2c0,4.5-1.5,6.6-4.4,6.6
		H216.9z M218.1,43.7v-9.8h52.5c1.5,0,2.4,1.1,2.4,3.1c0,4.5-1.5,6.7-4.4,6.7H218.1z M234,90.5h12v20.6c0,2.1,1.1,3.1,3.2,3.1h45
		c1.5,0,2.4,1.1,2.4,3.1c0,4.5-1.5,6.7-4.4,6.7h-46c-4.1,0-7.1-0.7-9.1-2c-2.1-1.5-3.1-4.1-3.1-7.8V90.5z M294.7,85.2
		c0,8.1-2.4,12.1-7.1,12.1h-1.7c-2.1,0-3.2-1-3.2-3.1V30.1h12V85.2z"/>
	<path class="st1" d="M355.3,77.7v21.4h41.8c1.5,0,2.4,1.2,2.4,3.3c0,4.6-1.5,6.8-4.4,6.8h-86.6V99.1h34.8V77.7H355.3z M369.3,87.3
		c0.7-3.4,1.4-6.8,2-10.2c0.5-3.2,1.1-6.4,1.5-9.6h-50.4v-9.8h51.6c0.1-1.9,0.2-3.7,0.3-5.7c0-1.8,0.1-3.6,0.1-5.5v-2.9h-53.2v-9.8
		h60.1c3.3,0,5,1.7,5,4.9v0.7v8.2c0,5.1-0.4,10.7-1.2,16.6c-0.9,6-2,12.5-3.3,19.4c-0.6,2.5-2.5,3.6-5.2,3.6H369.3z"/>
	<path class="st1" d="M436.7,31.8c3.9,0.1,7.3,0.7,10.5,2c3.1,1.4,5.8,3.2,8,5.3c2.1,2.2,3.7,4.8,4.9,7.8c1.1,3.1,1.6,6.4,1.6,9.8
		c0,3.5-0.5,6.7-1.6,9.7c-1.2,3.1-2.8,5.8-4.9,7.9c-2.2,2.4-4.9,4.1-8,5.3c-3.2,1.3-6.6,2-10.5,2c-3.9,0-7.4-0.7-10.4-2
		c-3.1-1.3-5.7-3-7.8-5.2c-2.2-2.1-4-4.8-5-7.8c-1.2-2.9-1.7-6.1-1.7-9.5c0-3.4,0.5-6.7,1.7-9.8c1.1-3,2.7-5.7,4.8-8
		c2.1-2.2,4.7-4.1,7.8-5.5C429.1,32.6,432.7,31.9,436.7,31.8z M436.7,71.9c1.8,0,3.5-0.4,5.1-1.3c1.5-0.7,2.9-1.8,4.2-3.3
		c1.2-1.3,2.1-3,2.9-4.9c0.6-1.8,1-3.7,1-5.9c0-1.9-0.3-3.9-1-5.8c-0.7-1.7-1.7-3.3-2.8-4.8c-1.3-1.3-2.7-2.4-4.2-3.2
		c-1.7-0.7-3.4-1.2-5.1-1.2c-1.9,0-3.6,0.4-5.1,1.2c-1.7,0.9-3.1,1.8-4.3,3.1c-1.3,1.4-2.1,3-2.8,4.7c-0.7,1.9-1.1,3.9-1.1,6
		c0,2.1,0.3,4.1,1,5.9c0.6,1.9,1.5,3.5,2.7,4.9c1.1,1.5,2.5,2.6,4.2,3.3C433,71.5,434.8,71.9,436.7,71.9z M426.5,90.5h12.1v20.6
		c0,2.1,1,3.1,3.1,3.1h45c1.5,0,2.4,1.1,2.4,3.1c0,4.5-1.5,6.7-4.4,6.7h-45.9c-4.1,0-7.2-0.7-9.2-2c-2.1-1.5-3.1-4.1-3.1-7.8V90.5z
		 M487.1,85.2c0,8.1-2.4,12.1-7.1,12.1h-1.7c-2.1,0-3.2-1-3.2-3.1V30.1h12V85.2z"/>
</g>
<g>
	<path class="st2" d="M234.2,162.3c-0.6-1.9-1.1-3.9-1.6-5.9c-0.6-1.9-1.1-3.9-1.7-5.9c-0.7,2.3-1.4,4.7-2,6.9
		c-0.7,2.3-1.4,4.7-2.1,7h-2c-0.9,0-1.6-0.7-2-2h0c-0.8-2.7-1.6-5.5-2.3-8.2c-0.8-2.7-1.6-5.4-2.3-8.2h4c0.5,2.4,1,4.8,1.6,7.2
		c0.5,2.4,1,4.8,1.5,7.2c0.7-2.4,1.4-4.8,2.1-7.2c0.7-2.4,1.4-4.8,2.1-7.2h3.2c0.6,2.4,1.3,4.8,1.9,7.1c0.6,2.4,1.3,4.8,1.9,7.2
		c0.6-2.4,1.1-4.8,1.7-7.2c0.6-2.3,1.1-4.7,1.7-7.1h3.5c-0.9,3.1-1.8,6.1-2.7,9.2c-0.9,3.1-1.8,6.1-2.7,9.2h-2
		C235.2,164.4,234.6,163.7,234.2,162.3z"/>
	<path class="st2" d="M260.1,162.3c-0.6-1.9-1.1-3.9-1.7-5.9c-0.6-1.9-1.1-3.9-1.7-5.9c-0.7,2.3-1.4,4.7-2,6.9
		c-0.7,2.3-1.4,4.7-2.1,7h-2c-0.9,0-1.6-0.7-2-2h0c-0.8-2.7-1.6-5.5-2.3-8.2c-0.8-2.7-1.6-5.4-2.3-8.2h4c0.5,2.4,1,4.8,1.6,7.2
		c0.5,2.4,1,4.8,1.5,7.2c0.7-2.4,1.4-4.8,2.1-7.2c0.7-2.4,1.4-4.8,2.1-7.2h3.2c0.6,2.4,1.3,4.8,1.9,7.1c0.6,2.4,1.3,4.8,1.9,7.2
		c0.6-2.4,1.1-4.8,1.7-7.2c0.6-2.3,1.1-4.7,1.7-7.1h3.5c-0.9,3.1-1.8,6.1-2.7,9.2c-0.9,3.1-1.8,6.1-2.7,9.2h-2
		C261.1,164.4,260.5,163.7,260.1,162.3z"/>
	<path class="st2" d="M286,162.3c-0.6-1.9-1.1-3.9-1.7-5.9c-0.6-1.9-1.1-3.9-1.7-5.9c-0.7,2.3-1.4,4.7-2,6.9c-0.7,2.3-1.4,4.7-2.1,7
		h-2c-0.9,0-1.6-0.7-2-2h0c-0.8-2.7-1.6-5.5-2.3-8.2c-0.8-2.7-1.6-5.4-2.3-8.2h4c0.5,2.4,1,4.8,1.6,7.2c0.5,2.4,1,4.8,1.5,7.2
		c0.7-2.4,1.4-4.8,2.1-7.2c0.7-2.4,1.4-4.8,2.1-7.2h3.2c0.6,2.4,1.3,4.8,1.9,7.1c0.6,2.4,1.3,4.8,1.9,7.2c0.6-2.4,1.1-4.8,1.7-7.2
		c0.6-2.3,1.1-4.7,1.7-7.1h3.5c-0.9,3.1-1.8,6.1-2.7,9.2c-0.9,3.1-1.8,6.1-2.7,9.2h-2C287,164.4,286.3,163.7,286,162.3z"/>
	<path class="st2" d="M297.5,160.9c0-0.5,0.2-1,0.6-1.4c0.4-0.4,0.9-0.6,1.5-0.6c0.6,0,1.1,0.2,1.6,0.6c0.4,0.4,0.6,0.9,0.6,1.4
		c0,0.6-0.2,1-0.6,1.4c-0.4,0.4-1,0.6-1.6,0.6c-0.6,0-1.1-0.2-1.5-0.6C297.7,161.9,297.5,161.5,297.5,160.9z"/>
	<path class="st2" d="M309.1,166.2c0,2.9-0.7,4.4-2.1,4.4h-0.5c-0.7,0-1-0.3-1-1V146h5.8c1.8,0,3.4,0.2,4.6,0.6
		c1.2,0.4,2.1,1,2.8,1.8c0.7,0.8,1.2,1.8,1.4,3c0.3,1.2,0.4,2.6,0.4,4.2v0c-0.1,1.3-0.3,2.5-0.6,3.5c-0.4,1.1-0.9,2-1.5,2.7
		c-0.7,0.8-1.4,1.4-2.3,1.8c-0.9,0.4-2,0.6-3.2,0.6c-0.8,0-1.5,0-2-0.2c-0.6-0.1-1.2-0.3-1.7-0.7V166.2z M317.1,154.7
		c-0.1-1.1-0.2-2-0.4-2.8c-0.2-0.7-0.6-1.3-1-1.7c-0.4-0.4-0.9-0.8-1.5-1c-0.6-0.2-1.4-0.3-2.2-0.3H309v11.7
		c0.5,0.2,0.9,0.4,1.3,0.4c0.3,0.1,0.8,0.2,1.3,0.2c0.1,0,0.2,0,0.2,0c0.1,0,0.1,0,0.2,0c1-0.1,1.9-0.4,2.5-0.7
		c0.7-0.3,1.2-0.8,1.6-1.3c0.4-0.5,0.6-1.2,0.8-1.9C317.1,156.5,317.1,155.6,317.1,154.7z"/>
	<path class="st2" d="M325.2,144.3c-0.6,0-1.1-0.2-1.5-0.6c-0.5-0.4-0.7-0.9-0.7-1.6c0-0.6,0.2-1.2,0.6-1.6c0.4-0.4,0.9-0.7,1.6-0.7
		c0.3,0,0.5,0.1,0.8,0.2c0.2,0.1,0.5,0.3,0.7,0.5c0.2,0.2,0.4,0.5,0.5,0.7c0.1,0.3,0.2,0.6,0.2,0.9c0,0.7-0.2,1.3-0.6,1.6
		C326.2,144,325.7,144.2,325.2,144.3z M326.9,160.7c0,1.3-0.2,2.3-0.5,3c-0.4,0.7-0.9,1-1.6,1h-0.5c-0.6,0-0.9-0.3-0.9-0.9v-17.2
		h3.5V160.7z"/>
	<path class="st2" d="M333.9,160.1c0,3-0.7,4.6-2,4.6h-0.5c-0.7,0-1-0.3-1-0.9v-16.8c1.2-0.5,2.3-0.9,3.6-1c1.2-0.1,2.4-0.2,3.6-0.2
		c1.1,0.1,2.1,0.2,3,0.3c0.9,0.2,1.7,0.5,2.3,0.9c0.6,0.5,1.1,1.1,1.5,1.8c0.3,0.8,0.5,1.7,0.5,2.9v9.1c0,1.3-0.2,2.3-0.5,3
		c-0.4,0.7-0.9,1-1.5,1h-0.5c-0.7,0-1-0.3-1-0.9v-12.6c0-0.6-0.2-1-0.4-1.4c-0.3-0.3-0.7-0.6-1.1-0.9c-0.4-0.2-0.9-0.3-1.3-0.4
		c-0.5-0.1-0.9-0.1-1.3-0.1c-0.7,0-1.3,0.1-1.8,0.2c-0.6,0.1-1.2,0.3-1.7,0.4V160.1z"/>
	<path class="st2" d="M360.9,147.1c-0.2,0.4-0.3,0.8-0.4,1.1c-0.2,0.4-0.3,0.7-0.5,1.1c-0.2-0.1-0.4-0.2-0.6-0.2
		c-0.3-0.1-0.5-0.1-0.8-0.2c-0.3,0-0.5-0.1-0.8-0.1c-0.3,0-0.5,0-0.7,0c-2.1,0-3.7,0.6-4.7,1.7c-1,1.2-1.5,2.7-1.5,4.7
		c0,1.2,0.2,2.2,0.5,3c0.3,0.8,0.8,1.5,1.4,1.9c0.5,0.5,1.1,0.9,1.7,1.1c0.6,0.2,1.2,0.3,1.8,0.3c0.4,0,0.8,0,1.3-0.2
		c0.4-0.1,0.9-0.2,1.3-0.4c0.4-0.1,0.7-0.2,1-0.3c0.3-0.1,0.4-0.2,0.5-0.2c0.2,0,0.5,0.2,0.8,0.5c0.3,0.3,0.4,0.7,0.4,1.2
		c0,0.4-0.2,0.8-0.6,1c-0.4,0.3-0.9,0.6-1.5,0.8c-0.6,0.2-1.2,0.4-1.9,0.5c-0.7,0.1-1.2,0.2-1.7,0.2c-1.4,0-2.6-0.3-3.7-0.8
		c-1.1-0.5-1.9-1.2-2.6-2c-0.7-0.9-1.3-1.8-1.6-3c-0.4-1.1-0.5-2.3-0.5-3.5c0-1.3,0.2-2.5,0.6-3.7c0.4-1.1,1-2.1,1.7-2.9
		c0.7-0.8,1.6-1.5,2.6-2c1-0.5,2.2-0.7,3.4-0.7c1,0,1.9,0.1,2.8,0.3C359.5,146.3,360.2,146.6,360.9,147.1z"/>
	<path class="st2" d="M371.1,145.8c1.3,0,2.3,0.2,3.3,0.7c0.9,0.5,1.7,1.1,2.4,1.8c0.6,0.8,1.1,1.8,1.4,2.9c0.3,1.2,0.5,2.5,0.5,3.9
		c0,1.3-0.2,2.5-0.4,3.6c-0.3,1.2-0.8,2.1-1.4,3c-0.6,0.9-1.4,1.6-2.3,2c-1,0.5-2.1,0.8-3.4,0.8c-1.5,0-2.7-0.3-3.6-0.8
		c-1-0.5-1.8-1.2-2.3-2.1c-0.6-0.9-1-1.9-1.3-3c-0.3-1.1-0.4-2.2-0.4-3.4c0-1.4,0.2-2.6,0.5-3.8c0.3-1.1,0.8-2.1,1.5-3
		c0.6-0.8,1.4-1.5,2.4-1.9C368.8,146,369.8,145.8,371.1,145.8z M371.1,161.6c0.9,0,1.7-0.2,2.2-0.6c0.5-0.4,0.9-1,1.3-1.6
		c0.3-0.6,0.5-1.3,0.6-2.1c0.1-0.7,0.1-1.5,0.1-2.1c0-0.8,0-1.6-0.1-2.3c-0.1-0.8-0.3-1.5-0.6-2.1c-0.3-0.6-0.7-1.1-1.3-1.5
		c-0.6-0.4-1.3-0.6-2.2-0.6c-1,0-1.8,0.2-2.3,0.6c-0.6,0.4-1,1-1.2,1.6c-0.3,0.7-0.4,1.4-0.5,2.1c-0.1,0.8-0.1,1.6-0.1,2.2
		c0,0.5,0,1.1,0,1.8c0,0.8,0.1,1.5,0.4,2.1c0.2,0.7,0.6,1.3,1.2,1.7C369.1,161.4,370,161.6,371.1,161.6z"/>
	<path class="st2" d="M383.8,144.3c-0.6,0-1.1-0.2-1.5-0.6c-0.5-0.4-0.7-0.9-0.7-1.6c0-0.6,0.2-1.2,0.6-1.6c0.4-0.4,0.9-0.7,1.6-0.7
		c0.3,0,0.5,0.1,0.8,0.2c0.2,0.1,0.5,0.3,0.7,0.5c0.2,0.2,0.4,0.5,0.5,0.7c0.1,0.3,0.2,0.6,0.2,0.9c0,0.7-0.2,1.3-0.6,1.6
		C384.8,144,384.4,144.2,383.8,144.3z M385.5,160.7c0,1.3-0.2,2.3-0.5,3c-0.4,0.7-0.9,1-1.6,1h-0.5c-0.6,0-0.9-0.3-0.9-0.9v-17.2
		h3.5V160.7z"/>
	<path class="st2" d="M392.5,160.1c0,3-0.7,4.6-2,4.6H390c-0.7,0-1-0.3-1-0.9v-16.8c1.2-0.5,2.3-0.9,3.6-1c1.2-0.1,2.4-0.2,3.6-0.2
		c1.1,0.1,2.1,0.2,3,0.3c0.9,0.2,1.7,0.5,2.3,0.9c0.6,0.5,1.1,1.1,1.5,1.8c0.3,0.8,0.5,1.7,0.5,2.9v9.1c0,1.3-0.2,2.3-0.5,3
		c-0.4,0.7-0.9,1-1.5,1h-0.5c-0.7,0-1-0.3-1-0.9v-12.6c0-0.6-0.2-1-0.4-1.4c-0.3-0.3-0.7-0.6-1.1-0.9c-0.4-0.2-0.9-0.3-1.3-0.4
		c-0.5-0.1-0.9-0.1-1.3-0.1c-0.7,0-1.3,0.1-1.8,0.2c-0.6,0.1-1.2,0.3-1.7,0.4V160.1z"/>
	<path class="st2" d="M406.8,160.9c0-0.5,0.2-1,0.6-1.4c0.4-0.4,0.9-0.6,1.5-0.6c0.6,0,1.1,0.2,1.6,0.6c0.4,0.4,0.6,0.9,0.6,1.4
		c0,0.6-0.2,1-0.6,1.4c-0.4,0.4-1,0.6-1.6,0.6c-0.6,0-1.1-0.2-1.5-0.6C407,161.9,406.8,161.5,406.8,160.9z"/>
	<path class="st2" d="M427.3,147.1c-0.2,0.4-0.3,0.8-0.4,1.1c-0.2,0.4-0.3,0.7-0.5,1.1c-0.2-0.1-0.4-0.2-0.6-0.2
		c-0.3-0.1-0.5-0.1-0.8-0.2c-0.3,0-0.5-0.1-0.8-0.1c-0.3,0-0.5,0-0.7,0c-2.1,0-3.7,0.6-4.7,1.7c-1,1.2-1.5,2.7-1.5,4.7
		c0,1.2,0.2,2.2,0.5,3c0.3,0.8,0.8,1.5,1.4,1.9c0.5,0.5,1.1,0.9,1.7,1.1c0.6,0.2,1.2,0.3,1.8,0.3c0.4,0,0.8,0,1.3-0.2
		c0.4-0.1,0.9-0.2,1.3-0.4c0.4-0.1,0.7-0.2,1-0.3c0.3-0.1,0.4-0.2,0.5-0.2c0.2,0,0.5,0.2,0.8,0.5c0.3,0.3,0.4,0.7,0.4,1.2
		c0,0.4-0.2,0.8-0.6,1c-0.4,0.3-0.9,0.6-1.5,0.8c-0.6,0.2-1.2,0.4-1.9,0.5c-0.7,0.1-1.2,0.2-1.7,0.2c-1.4,0-2.6-0.3-3.7-0.8
		c-1.1-0.5-1.9-1.2-2.6-2c-0.7-0.9-1.3-1.8-1.6-3c-0.4-1.1-0.5-2.3-0.5-3.5c0-1.3,0.2-2.5,0.6-3.7c0.4-1.1,1-2.1,1.7-2.9
		c0.7-0.8,1.6-1.5,2.6-2c1-0.5,2.2-0.7,3.4-0.7c1,0,1.9,0.1,2.8,0.3C425.9,146.3,426.6,146.6,427.3,147.1z"/>
	<path class="st2" d="M437.5,145.8c1.3,0,2.3,0.2,3.3,0.7c0.9,0.5,1.7,1.1,2.4,1.8c0.6,0.8,1.1,1.8,1.4,2.9c0.3,1.2,0.5,2.5,0.5,3.9
		c0,1.3-0.2,2.5-0.4,3.6c-0.3,1.2-0.8,2.1-1.4,3c-0.6,0.9-1.4,1.6-2.3,2c-1,0.5-2.1,0.8-3.4,0.8c-1.5,0-2.7-0.3-3.6-0.8
		c-1-0.5-1.8-1.2-2.3-2.1c-0.6-0.9-1-1.9-1.3-3c-0.3-1.1-0.4-2.2-0.4-3.4c0-1.4,0.2-2.6,0.5-3.8c0.3-1.1,0.8-2.1,1.5-3
		c0.6-0.8,1.4-1.5,2.4-1.9C435.2,146,436.2,145.8,437.5,145.8z M437.5,161.6c0.9,0,1.7-0.2,2.2-0.6c0.5-0.4,0.9-1,1.3-1.6
		c0.3-0.6,0.5-1.3,0.6-2.1c0.1-0.7,0.1-1.5,0.1-2.1c0-0.8,0-1.6-0.1-2.3c-0.1-0.8-0.3-1.5-0.6-2.1c-0.3-0.6-0.7-1.1-1.3-1.5
		c-0.6-0.4-1.3-0.6-2.2-0.6c-1,0-1.8,0.2-2.3,0.6c-0.6,0.4-1,1-1.2,1.6c-0.3,0.7-0.4,1.4-0.5,2.1c-0.1,0.8-0.1,1.6-0.1,2.2
		c0,0.5,0,1.1,0,1.8c0,0.8,0.1,1.5,0.4,2.1c0.2,0.7,0.6,1.3,1.2,1.7C435.5,161.4,436.4,161.6,437.5,161.6z"/>
	<path class="st2" d="M448.1,160.9c0-0.5,0.2-1,0.6-1.4c0.4-0.4,0.9-0.6,1.5-0.6c0.6,0,1.1,0.2,1.6,0.6c0.4,0.4,0.6,0.9,0.6,1.4
		c0,0.6-0.2,1-0.6,1.4c-0.4,0.4-1,0.6-1.6,0.6c-0.6,0-1.1-0.2-1.5-0.6C448.3,161.9,448.1,161.5,448.1,160.9z"/>
	<path class="st2" d="M456.1,139.9h3.4v20.6c0,2.6-0.7,4-2,4H457c-0.6,0-0.9-0.3-0.9-0.9V139.9z M468,164.4
		c-1.4-1.7-2.7-3.5-4.1-5.2c-1.4-1.7-2.7-3.4-4.1-5.2c1.2-1.3,2.3-2.7,3.5-4c1.1-1.3,2.3-2.6,3.5-4h4c-1.2,1.3-2.4,2.6-3.6,3.9
		c-1.2,1.3-2.4,2.6-3.7,3.9c1.3,1.6,2.5,3.1,3.8,4.7c1.3,1.6,2.5,3.1,3.8,4.6c0.2,0.3,0.3,0.6,0.3,0.8c0,0.3-0.3,0.4-0.8,0.4H468z"
		/>
	<path class="st2" d="M478.3,160.2c0,3-0.7,4.4-2.1,4.4h-0.5c-0.7,0-1-0.3-1-0.9v-16.8c1.1-0.4,2.3-0.7,3.4-0.9
		c1.1-0.2,2.2-0.3,3.3-0.3c0.6,0,1.3,0,1.9,0.1c0.7,0.1,1.3,0.1,1.8,0.2c-0.1,0.5-0.3,1-0.4,1.5c-0.1,0.5-0.3,1-0.4,1.5
		c-0.4-0.1-0.9-0.2-1.4-0.3c-0.5-0.1-1-0.1-1.4-0.1c-0.3,0-0.6,0-0.9,0c-0.3,0.1-0.7,0.1-1,0.1c-0.3,0.1-0.7,0.1-0.9,0.2
		c-0.3,0.1-0.5,0.1-0.7,0.2V160.2z"/>
</g>
</svg>
