<?xml version="1.0" encoding="utf-8"?>
<!-- Generator: Adobe Illustrator 28.0.0, SVG Export Plug-In . SVG Version: 6.00 Build 0)  -->
<svg version="1.1" id="레이어_1" xmlns="http://www.w3.org/2000/svg" x="0px"
	 y="0px" viewBox="0 0 199.9 200.6" style="enable-background:new 0 0 199.9 200.6;" xml:space="preserve">
<style type="text/css">
	.st0{fill:#89B92A;}
	.st1{fill:#E89413;}
</style>
<g>
	<path class="st0" d="M9.7,15.7c0,0,21.4,108.1,87.6,91.5c0,0-26.9-79.6-66.9-89.1C30.3,18.1,18.8,14.8,9.7,15.7z"/>
	<path class="st0" d="M115.4,108.8c0,0,1.2-63,46.3-44.8c0,0,18.6,10.7,20.6,8.3C182.4,72.3,179.6,138.5,115.4,108.8z"/>
	<path class="st0" d="M112.3,122.6c0,0,10.3,68.9,53.1,63.4c0,0,12.3-2,24.6-15.1C189.9,171,164.6,115.5,112.3,122.6z"/>
	<path class="st0" d="M44.9,181.3c0,0-1.6-87.1,60.6-59c0,0,11.9,54.7-20.6,68.5C84.9,190.8,62.3,197.1,44.9,181.3z"/>
	<path class="st1" d="M119,43.6c0,12.6-8.9,22.8-19.8,22.8S79.4,56.2,79.4,43.6s8.9-22.8,19.8-22.8C110.1,20.8,119,31,119,43.6z"/>
</g>
</svg>
