<?xml version="1.0" encoding="utf-8"?>
<!-- Generator: Adobe Illustrator 28.0.0, SVG Export Plug-In . SVG Version: 6.00 Build 0)  -->
<svg version="1.1" id="layer_1" xmlns="http://www.w3.org/2000/svg" x="0px"
	 y="0px" viewBox="0 0 379.5 422" style="enable-background:new 0 0 379.5 422;" xml:space="preserve">
<style type="text/css">
	.st0{fill:#89B92A;}
	.st1{fill:#E89413;}
	.st2{fill:#727171;}
</style>
<g>
	<path class="st0" d="M90.2,28.6c0,0,21.4,108.1,87.6,91.5c0,0-26.9-79.6-66.9-89.1C110.8,30.9,99.3,27.7,90.2,28.6z"/>
	<path class="st0" d="M195.9,121.6c0,0,1.2-63,46.3-44.8c0,0,18.6,10.7,20.6,8.3C262.9,85.2,260.1,151.4,195.9,121.6z"/>
	<path class="st0" d="M192.8,135.5c0,0,10.3,68.9,53.1,63.4c0,0,12.3-2,24.6-15.1C270.4,183.8,245.1,128.4,192.8,135.5z"/>
	<path class="st0" d="M125.4,194.1c0,0-1.6-87.1,60.6-59c0,0,11.9,54.7-20.6,68.5C165.4,203.6,142.9,210,125.4,194.1z"/>
	<path class="st1" d="M199.5,56.5c0,12.6-8.9,22.8-19.8,22.8c-10.9,0-19.8-10.2-19.8-22.8c0-12.6,8.9-22.8,19.8-22.8
		C190.6,33.7,199.5,43.9,199.5,56.5z"/>
</g>
<g>
	<path class="st1" d="M44.2,293.7v-9.8h9.3v-24.4h12v24.4h13.2v-24.4h11.8v24.4h10.1c1.5,0,2.4,1.1,2.4,3.2c0,4.5-1.5,6.6-4.4,6.6
		H44.2z M45.4,256.3v-9.8h52.5c1.5,0,2.4,1.1,2.4,3.1c0,4.5-1.5,6.7-4.4,6.7H45.4z M61.3,303.1h12v20.6c0,2.1,1.1,3.1,3.2,3.1h45
		c1.5,0,2.4,1.1,2.4,3.1c0,4.5-1.5,6.7-4.4,6.7h-46c-4.1,0-7.1-0.7-9.1-2c-2.1-1.5-3.1-4.1-3.1-7.8V303.1z M122,297.8
		c0,8.1-2.4,12.1-7.1,12.1h-1.7c-2.1,0-3.2-1-3.2-3.1v-64.1h12V297.8z"/>
	<path class="st1" d="M182.6,290.3v21.4h41.8c1.5,0,2.4,1.2,2.4,3.3c0,4.6-1.5,6.8-4.4,6.8h-86.6v-10.2h34.8v-21.4H182.6z
		 M196.7,299.9c0.7-3.4,1.4-6.8,2-10.2c0.5-3.2,1.1-6.4,1.5-9.6h-50.4v-9.8h51.6c0.1-1.9,0.2-3.7,0.3-5.7c0-1.8,0.1-3.6,0.1-5.5
		v-2.9h-53.2v-9.8h60.1c3.3,0,5,1.7,5,4.9v0.7v8.2c0,5.1-0.4,10.7-1.2,16.6c-0.9,6-2,12.5-3.3,19.4c-0.6,2.5-2.5,3.6-5.2,3.6H196.7z
		"/>
	<path class="st1" d="M264,244.4c3.9,0.1,7.3,0.7,10.5,2c3.1,1.4,5.8,3.2,8,5.3c2.1,2.2,3.7,4.8,4.9,7.8c1.1,3.1,1.6,6.4,1.6,9.8
		c0,3.5-0.5,6.7-1.6,9.7c-1.2,3.1-2.8,5.8-4.9,7.9c-2.2,2.4-4.9,4.1-8,5.3c-3.2,1.3-6.6,2-10.5,2c-3.9,0-7.4-0.7-10.4-2
		c-3.1-1.3-5.7-3-7.8-5.2c-2.2-2.1-4-4.8-5-7.8c-1.2-2.9-1.7-6.1-1.7-9.5c0-3.4,0.5-6.7,1.7-9.8c1.1-3,2.7-5.7,4.8-8
		c2.1-2.2,4.7-4.1,7.8-5.5C256.5,245.3,260,244.5,264,244.4z M264,284.5c1.8,0,3.5-0.4,5.1-1.3c1.5-0.7,2.9-1.8,4.2-3.3
		c1.2-1.3,2.1-3,2.9-4.9c0.6-1.8,1-3.7,1-5.9c0-1.9-0.3-3.9-1-5.8c-0.7-1.7-1.7-3.3-2.8-4.8c-1.3-1.3-2.7-2.4-4.2-3.2
		c-1.7-0.7-3.4-1.2-5.1-1.2c-1.9,0-3.6,0.4-5.1,1.2c-1.7,0.9-3.1,1.8-4.3,3.1c-1.3,1.4-2.1,3-2.8,4.7c-0.7,1.9-1.1,3.9-1.1,6
		c0,2.1,0.3,4.1,1,5.9c0.6,1.9,1.5,3.5,2.7,4.9c1.1,1.5,2.5,2.6,4.2,3.3C260.3,284.1,262.1,284.5,264,284.5z M253.8,303.1h12.1v20.6
		c0,2.1,1,3.1,3.1,3.1h45c1.5,0,2.4,1.1,2.4,3.1c0,4.5-1.5,6.7-4.4,6.7h-45.9c-4.1,0-7.2-0.7-9.2-2c-2.1-1.5-3.1-4.1-3.1-7.8V303.1z
		 M314.4,297.8c0,8.1-2.4,12.1-7.1,12.1h-1.7c-2.1,0-3.2-1-3.2-3.1v-64.1h12V297.8z"/>
</g>
<g>
	<path class="st2" d="M62.8,374.9c-0.6-1.9-1.1-3.9-1.6-5.9c-0.6-1.9-1.1-3.9-1.7-5.9c-0.7,2.3-1.4,4.7-2,6.9
		c-0.7,2.3-1.4,4.7-2.1,7h-2c-0.9,0-1.6-0.7-2-2h0c-0.8-2.7-1.6-5.5-2.3-8.2c-0.8-2.7-1.6-5.4-2.3-8.2h4c0.5,2.4,1,4.8,1.6,7.2
		c0.5,2.4,1,4.8,1.5,7.2c0.7-2.4,1.4-4.8,2.1-7.2c0.7-2.4,1.4-4.8,2.1-7.2h3.2c0.6,2.4,1.3,4.8,1.9,7.1c0.6,2.4,1.3,4.8,1.9,7.2
		c0.6-2.4,1.1-4.8,1.7-7.2c0.6-2.3,1.1-4.7,1.7-7.1h3.5c-0.9,3.1-1.8,6.1-2.7,9.2c-0.9,3.1-1.8,6.1-2.7,9.2h-2
		C63.8,377,63.2,376.4,62.8,374.9z"/>
	<path class="st2" d="M88.7,374.9c-0.6-1.9-1.1-3.9-1.7-5.9c-0.6-1.9-1.1-3.9-1.7-5.9c-0.7,2.3-1.4,4.7-2,6.9
		c-0.7,2.3-1.4,4.7-2.1,7h-2c-0.9,0-1.6-0.7-2-2h0c-0.8-2.7-1.6-5.5-2.3-8.2c-0.8-2.7-1.6-5.4-2.3-8.2h4c0.5,2.4,1,4.8,1.6,7.2
		c0.5,2.4,1,4.8,1.5,7.2c0.7-2.4,1.4-4.8,2.1-7.2c0.7-2.4,1.4-4.8,2.1-7.2h3.2c0.6,2.4,1.3,4.8,1.9,7.1c0.6,2.4,1.3,4.8,1.9,7.2
		c0.6-2.4,1.1-4.8,1.7-7.2c0.6-2.3,1.1-4.7,1.7-7.1H98c-0.9,3.1-1.8,6.1-2.7,9.2c-0.9,3.1-1.8,6.1-2.7,9.2h-2
		C89.7,377,89,376.4,88.7,374.9z"/>
	<path class="st2" d="M114.5,374.9c-0.6-1.9-1.1-3.9-1.7-5.9c-0.6-1.9-1.1-3.9-1.7-5.9c-0.7,2.3-1.4,4.7-2,6.9
		c-0.7,2.3-1.4,4.7-2.1,7h-2c-0.9,0-1.6-0.7-2-2h0c-0.8-2.7-1.6-5.5-2.3-8.2c-0.8-2.7-1.6-5.4-2.3-8.2h4c0.5,2.4,1,4.8,1.6,7.2
		c0.5,2.4,1,4.8,1.5,7.2c0.7-2.4,1.4-4.8,2.1-7.2c0.7-2.4,1.4-4.8,2.1-7.2h3.2c0.6,2.4,1.3,4.8,1.9,7.1c0.6,2.4,1.3,4.8,1.9,7.2
		c0.6-2.4,1.1-4.8,1.7-7.2c0.6-2.3,1.1-4.7,1.7-7.1h3.5c-0.9,3.1-1.8,6.1-2.7,9.2c-0.9,3.1-1.8,6.1-2.7,9.2h-2
		C115.5,377,114.9,376.4,114.5,374.9z"/>
	<path class="st2" d="M126.1,373.5c0-0.5,0.2-1,0.6-1.4c0.4-0.4,0.9-0.6,1.5-0.6c0.6,0,1.1,0.2,1.6,0.6c0.4,0.4,0.6,0.9,0.6,1.4
		c0,0.6-0.2,1-0.6,1.4c-0.4,0.4-1,0.6-1.6,0.6c-0.6,0-1.1-0.2-1.5-0.6C126.3,374.5,126.1,374.1,126.1,373.5z"/>
	<path class="st2" d="M137.7,378.8c0,2.9-0.7,4.4-2.1,4.4H135c-0.7,0-1-0.3-1-1v-23.5h5.8c1.8,0,3.4,0.2,4.6,0.6
		c1.2,0.4,2.1,1,2.8,1.8c0.7,0.8,1.2,1.8,1.4,3c0.3,1.2,0.4,2.6,0.4,4.2v0c-0.1,1.3-0.3,2.5-0.6,3.5c-0.4,1.1-0.9,2-1.5,2.7
		c-0.7,0.8-1.4,1.4-2.3,1.8c-0.9,0.4-2,0.6-3.2,0.6c-0.8,0-1.5,0-2-0.2c-0.6-0.1-1.2-0.3-1.7-0.7V378.8z M145.7,367.3
		c-0.1-1.1-0.2-2-0.4-2.8c-0.2-0.7-0.6-1.3-1-1.7c-0.4-0.4-0.9-0.8-1.5-1c-0.6-0.2-1.4-0.3-2.2-0.3h-3.1v11.7
		c0.5,0.2,0.9,0.4,1.3,0.4c0.3,0.1,0.8,0.2,1.3,0.2c0.1,0,0.2,0,0.2,0c0.1,0,0.1,0,0.2,0c1-0.1,1.9-0.4,2.5-0.7
		c0.7-0.3,1.2-0.8,1.6-1.3c0.4-0.5,0.6-1.2,0.8-1.9C145.6,369.1,145.7,368.3,145.7,367.3z"/>
	<path class="st2" d="M153.8,356.9c-0.6,0-1.1-0.2-1.5-0.6c-0.5-0.4-0.7-0.9-0.7-1.6c0-0.6,0.2-1.2,0.6-1.6c0.4-0.4,0.9-0.7,1.6-0.7
		c0.3,0,0.5,0.1,0.8,0.2c0.2,0.1,0.5,0.3,0.7,0.5c0.2,0.2,0.4,0.5,0.5,0.7c0.1,0.3,0.2,0.6,0.2,0.9c0,0.7-0.2,1.3-0.6,1.6
		C154.8,356.6,154.3,356.8,153.8,356.9z M155.5,373.3c0,1.3-0.2,2.3-0.5,3c-0.4,0.7-0.9,1-1.6,1h-0.5c-0.6,0-0.9-0.3-0.9-0.9v-17.2
		h3.5V373.3z"/>
	<path class="st2" d="M162.4,372.8c0,3-0.7,4.6-2,4.6h-0.5c-0.7,0-1-0.3-1-0.9v-16.8c1.2-0.5,2.3-0.9,3.6-1c1.2-0.1,2.4-0.2,3.6-0.2
		c1.1,0.1,2.1,0.2,3,0.3c0.9,0.2,1.7,0.5,2.3,0.9c0.6,0.5,1.1,1.1,1.5,1.8c0.3,0.8,0.5,1.7,0.5,2.9v9.1c0,1.3-0.2,2.3-0.5,3
		c-0.4,0.7-0.9,1-1.5,1H171c-0.7,0-1-0.3-1-0.9v-12.6c0-0.6-0.2-1-0.4-1.4c-0.3-0.3-0.7-0.6-1.1-0.9c-0.4-0.2-0.9-0.3-1.3-0.4
		c-0.5-0.1-0.9-0.1-1.3-0.1c-0.7,0-1.3,0.1-1.8,0.2c-0.6,0.1-1.2,0.3-1.7,0.4V372.8z"/>
	<path class="st2" d="M189.5,359.7c-0.2,0.4-0.3,0.8-0.4,1.1c-0.2,0.4-0.3,0.7-0.5,1.1c-0.2-0.1-0.4-0.2-0.6-0.2
		c-0.3-0.1-0.5-0.1-0.8-0.2c-0.3,0-0.5-0.1-0.8-0.1c-0.3,0-0.5,0-0.7,0c-2.1,0-3.7,0.6-4.7,1.7c-1,1.2-1.5,2.7-1.5,4.7
		c0,1.2,0.2,2.2,0.5,3c0.3,0.8,0.8,1.5,1.4,1.9c0.5,0.5,1.1,0.9,1.7,1.1c0.6,0.2,1.2,0.3,1.8,0.3c0.4,0,0.8,0,1.3-0.2
		c0.4-0.1,0.9-0.2,1.3-0.4c0.4-0.1,0.7-0.2,1-0.3c0.3-0.1,0.4-0.2,0.5-0.2c0.2,0,0.5,0.2,0.8,0.5c0.3,0.3,0.4,0.7,0.4,1.2
		c0,0.4-0.2,0.8-0.6,1c-0.4,0.3-0.9,0.6-1.5,0.8c-0.6,0.2-1.2,0.4-1.9,0.5c-0.7,0.1-1.2,0.2-1.7,0.2c-1.4,0-2.6-0.3-3.7-0.8
		c-1.1-0.5-1.9-1.2-2.6-2c-0.7-0.9-1.3-1.8-1.6-3c-0.4-1.1-0.5-2.3-0.5-3.5c0-1.3,0.2-2.5,0.6-3.7c0.4-1.1,1-2.1,1.7-2.9
		c0.7-0.8,1.6-1.5,2.6-2c1-0.5,2.2-0.7,3.4-0.7c1,0,1.9,0.1,2.8,0.3C188,358.9,188.8,359.3,189.5,359.7z"/>
	<path class="st2" d="M199.7,358.4c1.3,0,2.3,0.2,3.3,0.7c0.9,0.5,1.7,1.1,2.4,1.8c0.6,0.8,1.1,1.8,1.4,2.9c0.3,1.2,0.5,2.5,0.5,3.9
		c0,1.3-0.2,2.5-0.4,3.6c-0.3,1.2-0.8,2.1-1.4,3c-0.6,0.9-1.4,1.6-2.3,2c-1,0.5-2.1,0.8-3.4,0.8c-1.5,0-2.7-0.3-3.6-0.8
		c-1-0.5-1.8-1.2-2.3-2.1c-0.6-0.9-1-1.9-1.3-3c-0.3-1.1-0.4-2.2-0.4-3.4c0-1.4,0.2-2.6,0.5-3.8c0.3-1.1,0.8-2.1,1.5-3
		c0.6-0.8,1.4-1.5,2.4-1.9C197.4,358.7,198.4,358.4,199.7,358.4z M199.7,374.2c0.9,0,1.7-0.2,2.2-0.6c0.5-0.4,0.9-1,1.3-1.6
		c0.3-0.6,0.5-1.3,0.6-2.1c0.1-0.7,0.1-1.5,0.1-2.1c0-0.8,0-1.6-0.1-2.3c-0.1-0.8-0.3-1.5-0.6-2.1c-0.3-0.6-0.7-1.1-1.3-1.5
		c-0.6-0.4-1.3-0.6-2.2-0.6c-1,0-1.8,0.2-2.3,0.6c-0.6,0.4-1,1-1.2,1.6c-0.3,0.7-0.4,1.4-0.5,2.1c-0.1,0.8-0.1,1.6-0.1,2.2
		c0,0.5,0,1.1,0,1.8c0,0.8,0.1,1.5,0.4,2.1c0.2,0.7,0.6,1.3,1.2,1.7C197.7,374,198.5,374.2,199.7,374.2z"/>
	<path class="st2" d="M212.4,356.9c-0.6,0-1.1-0.2-1.5-0.6c-0.5-0.4-0.7-0.9-0.7-1.6c0-0.6,0.2-1.2,0.6-1.6c0.4-0.4,0.9-0.7,1.6-0.7
		c0.3,0,0.5,0.1,0.8,0.2c0.2,0.1,0.5,0.3,0.7,0.5c0.2,0.2,0.4,0.5,0.5,0.7c0.1,0.3,0.2,0.6,0.2,0.9c0,0.7-0.2,1.3-0.6,1.6
		C213.4,356.6,212.9,356.8,212.4,356.9z M214.1,373.3c0,1.3-0.2,2.3-0.5,3c-0.4,0.7-0.9,1-1.6,1h-0.5c-0.6,0-0.9-0.3-0.9-0.9v-17.2
		h3.5V373.3z"/>
	<path class="st2" d="M221,372.8c0,3-0.7,4.6-2,4.6h-0.5c-0.7,0-1-0.3-1-0.9v-16.8c1.2-0.5,2.3-0.9,3.6-1c1.2-0.1,2.4-0.2,3.6-0.2
		c1.1,0.1,2.1,0.2,3,0.3c0.9,0.2,1.7,0.5,2.3,0.9c0.6,0.5,1.1,1.1,1.5,1.8c0.3,0.8,0.5,1.7,0.5,2.9v9.1c0,1.3-0.2,2.3-0.5,3
		c-0.4,0.7-0.9,1-1.5,1h-0.5c-0.7,0-1-0.3-1-0.9v-12.6c0-0.6-0.2-1-0.4-1.4c-0.3-0.3-0.7-0.6-1.1-0.9c-0.4-0.2-0.9-0.3-1.3-0.4
		c-0.5-0.1-0.9-0.1-1.3-0.1c-0.7,0-1.3,0.1-1.8,0.2c-0.6,0.1-1.2,0.3-1.7,0.4V372.8z"/>
	<path class="st2" d="M235.4,373.5c0-0.5,0.2-1,0.6-1.4c0.4-0.4,0.9-0.6,1.5-0.6c0.6,0,1.1,0.2,1.6,0.6c0.4,0.4,0.6,0.9,0.6,1.4
		c0,0.6-0.2,1-0.6,1.4c-0.4,0.4-1,0.6-1.6,0.6c-0.6,0-1.1-0.2-1.5-0.6C235.6,374.5,235.4,374.1,235.4,373.5z"/>
	<path class="st2" d="M255.9,359.7c-0.2,0.4-0.3,0.8-0.4,1.1c-0.2,0.4-0.3,0.7-0.5,1.1c-0.2-0.1-0.4-0.2-0.6-0.2
		c-0.3-0.1-0.5-0.1-0.8-0.2c-0.3,0-0.5-0.1-0.8-0.1c-0.3,0-0.5,0-0.7,0c-2.1,0-3.7,0.6-4.7,1.7c-1,1.2-1.5,2.7-1.5,4.7
		c0,1.2,0.2,2.2,0.5,3c0.3,0.8,0.8,1.5,1.4,1.9c0.5,0.5,1.1,0.9,1.7,1.1c0.6,0.2,1.2,0.3,1.8,0.3c0.4,0,0.8,0,1.3-0.2
		c0.4-0.1,0.9-0.2,1.3-0.4c0.4-0.1,0.7-0.2,1-0.3c0.3-0.1,0.4-0.2,0.5-0.2c0.2,0,0.5,0.2,0.8,0.5c0.3,0.3,0.4,0.7,0.4,1.2
		c0,0.4-0.2,0.8-0.6,1c-0.4,0.3-0.9,0.6-1.5,0.8c-0.6,0.2-1.2,0.4-1.9,0.5c-0.7,0.1-1.2,0.2-1.7,0.2c-1.4,0-2.6-0.3-3.7-0.8
		c-1.1-0.5-1.9-1.2-2.6-2c-0.7-0.9-1.3-1.8-1.6-3c-0.4-1.1-0.5-2.3-0.5-3.5c0-1.3,0.2-2.5,0.6-3.7c0.4-1.1,1-2.1,1.7-2.9
		c0.7-0.8,1.6-1.5,2.6-2c1-0.5,2.2-0.7,3.4-0.7c1,0,1.9,0.1,2.8,0.3C254.4,358.9,255.2,359.3,255.9,359.7z"/>
	<path class="st2" d="M266.1,358.4c1.3,0,2.3,0.2,3.3,0.7c0.9,0.5,1.7,1.1,2.4,1.8c0.6,0.8,1.1,1.8,1.4,2.9c0.3,1.2,0.5,2.5,0.5,3.9
		c0,1.3-0.2,2.5-0.4,3.6c-0.3,1.2-0.8,2.1-1.4,3c-0.6,0.9-1.4,1.6-2.3,2c-1,0.5-2.1,0.8-3.4,0.8c-1.5,0-2.7-0.3-3.6-0.8
		c-1-0.5-1.8-1.2-2.3-2.1c-0.6-0.9-1-1.9-1.3-3c-0.3-1.1-0.4-2.2-0.4-3.4c0-1.4,0.2-2.6,0.5-3.8c0.3-1.1,0.8-2.1,1.5-3
		c0.6-0.8,1.4-1.5,2.4-1.9C263.7,358.7,264.8,358.4,266.1,358.4z M266.1,374.2c0.9,0,1.7-0.2,2.2-0.6c0.5-0.4,0.9-1,1.3-1.6
		c0.3-0.6,0.5-1.3,0.6-2.1c0.1-0.7,0.1-1.5,0.1-2.1c0-0.8,0-1.6-0.1-2.3c-0.1-0.8-0.3-1.5-0.6-2.1c-0.3-0.6-0.7-1.1-1.3-1.5
		c-0.6-0.4-1.3-0.6-2.2-0.6c-1,0-1.8,0.2-2.3,0.6c-0.6,0.4-1,1-1.2,1.6c-0.3,0.7-0.4,1.4-0.5,2.1c-0.1,0.8-0.1,1.6-0.1,2.2
		c0,0.5,0,1.1,0,1.8c0,0.8,0.1,1.5,0.4,2.1c0.2,0.7,0.6,1.3,1.2,1.7C264.1,374,264.9,374.2,266.1,374.2z"/>
	<path class="st2" d="M276.7,373.5c0-0.5,0.2-1,0.6-1.4c0.4-0.4,0.9-0.6,1.5-0.6c0.6,0,1.1,0.2,1.6,0.6c0.4,0.4,0.6,0.9,0.6,1.4
		c0,0.6-0.2,1-0.6,1.4c-0.4,0.4-1,0.6-1.6,0.6c-0.6,0-1.1-0.2-1.5-0.6C276.9,374.5,276.7,374.1,276.7,373.5z"/>
	<path class="st2" d="M284.7,352.6h3.4v20.6c0,2.6-0.7,4-2,4h-0.5c-0.6,0-0.9-0.3-0.9-0.9V352.6z M296.6,377
		c-1.4-1.7-2.7-3.5-4.1-5.2c-1.4-1.7-2.7-3.4-4.1-5.2c1.2-1.3,2.3-2.7,3.5-4c1.1-1.3,2.3-2.6,3.5-4h4c-1.2,1.3-2.4,2.6-3.6,3.9
		c-1.2,1.3-2.4,2.6-3.7,3.9c1.3,1.6,2.5,3.1,3.8,4.7c1.3,1.6,2.5,3.1,3.8,4.6c0.2,0.3,0.3,0.6,0.3,0.8c0,0.3-0.3,0.4-0.8,0.4H296.6z
		"/>
	<path class="st2" d="M306.8,372.8c0,3-0.7,4.4-2.1,4.4h-0.5c-0.7,0-1-0.3-1-0.9v-16.8c1.1-0.4,2.3-0.7,3.4-0.9
		c1.1-0.2,2.2-0.3,3.3-0.3c0.6,0,1.3,0,1.9,0.1c0.7,0.1,1.3,0.1,1.8,0.2c-0.1,0.5-0.3,1-0.4,1.5c-0.1,0.5-0.3,1-0.4,1.5
		c-0.4-0.1-0.9-0.2-1.4-0.3c-0.5-0.1-1-0.1-1.4-0.1c-0.3,0-0.6,0-0.9,0c-0.3,0.1-0.7,0.1-1,0.1c-0.3,0.1-0.7,0.1-0.9,0.2
		c-0.3,0.1-0.5,0.1-0.7,0.2V372.8z"/>
</g>
</svg>
